# xmcd
#
# Track frame offsets: 
#        150
#        42297
#        97897
#        135422
#        186487
#
# Disc length: 3396 seconds
#
# Revision: 1
# Processed by: cddbd v1.5.2PL0 Copyright (c) Steve Scherf et al.
# Submitted via: ExactAudioCopy v1.0b3
#
DISCID=3b0d4205
DTITLE=Neumann, Czech Philharmonic Orchestra - Dvorak - Symphony No. 9
DTITLE=, Notturno
DYEAR=1972
DGENRE=Classical
TTITLE0=SYMPHONY No.9 in E minor, Op.95 B.178 "From the New World" Ada
TTITLE0=gio - Allegro molto
TTITLE1=SYMPHONY No.9 in E minor, Op.95 B.178 "From the New World" Lar
TTITLE1=go
TTITLE2=SYMPHONY No.9 in E minor, Op.95 B.178 "From the New World" Sch
TTITLE2=erzo. Molto vivace
TTITLE3=SYMPHONY No.9 in E minor, Op.95 B.178 "From the New World" All
TTITLE3=egro con fuoco
TTITLE4=Notturno for String Orchestra, Op.40 B.47
EXTD=
EXTT0=
EXTT1=
EXTT2=
EXTT3=
EXTT4=
PLAYORDER=
